<svg width="34" height="34" viewBox="0 0 34 34" fill="none" xmlns="http://www.w3.org/2000/svg">
<path d="M21.7438 13.2582L13.2585 21.7435C12.9686 22.0334 12.4877 22.0334 12.1978 21.7435C11.9079 21.4536 11.9079 20.9728 12.1978 20.6829L20.6831 12.1976C20.973 11.9077 21.4538 11.9077 21.7438 12.1976C22.0337 12.4875 22.0337 12.9683 21.7438 13.2582Z" fill="white"/>
<path d="M21.7438 21.7436C21.4538 22.0335 20.973 22.0335 20.6831 21.7436L12.1978 13.2583C11.9079 12.9684 11.9079 12.4876 12.1978 12.1976C12.4877 11.9077 12.9686 11.9077 13.2585 12.1976L21.7438 20.6829C22.0337 20.9728 22.0337 21.4537 21.7438 21.7436Z" fill="white"/>
</svg>
